<?xml version="1.0" standalone="no"?><!DOCTYPE svg PUBLIC "-//W3C//DTD SVG 1.1//EN" "http://www.w3.org/Graphics/SVG/1.1/DTD/svg11.dtd"><svg t="1591008008878" class="icon" viewBox="0 0 1024 1024" version="1.1" xmlns="http://www.w3.org/2000/svg" p-id="5219" xmlns:xlink="http://www.w3.org/1999/xlink" width="64" height="64"><defs><style type="text/css"></style></defs><path d="M651.636364 490.123636h-116.363637v-116.363636a23.272727 23.272727 0 0 0-46.545454 0v116.363636h-116.363637a23.272727 23.272727 0 0 0 0 46.545455h116.363637v116.363636a23.272727 23.272727 0 0 0 46.545454 0v-116.363636h116.363637a23.272727 23.272727 0 0 0 0-46.545455z" p-id="5220" fill="#ffffff"></path><path d="M509.44 141.032727A364.916364 364.916364 0 0 0 139.636364 510.603636a379.810909 379.810909 0 0 0 375.389091 374.923637h3.490909A365.149091 365.149091 0 0 0 884.363636 516.189091 379.810909 379.810909 0 0 0 509.44 141.032727zM744.727273 745.890909a321.163636 321.163636 0 0 1-229.469091 93.090909A332.8 332.8 0 0 1 186.181818 510.138182 318.370909 318.370909 0 0 1 506.181818 187.345455h3.025455A332.8 332.8 0 0 1 837.818182 516.421818a317.905455 317.905455 0 0 1-93.090909 229.469091z" p-id="5221" fill="#ffffff"></path></svg>