<?xml version="1.0" standalone="no"?><!DOCTYPE svg PUBLIC "-//W3C//DTD SVG 1.1//EN" "http://www.w3.org/Graphics/SVG/1.1/DTD/svg11.dtd"><svg t="1591002328492" class="icon" viewBox="0 0 1024 1024" version="1.1" xmlns="http://www.w3.org/2000/svg" p-id="1158" width="64" height="64" xmlns:xlink="http://www.w3.org/1999/xlink"><defs><style type="text/css"></style></defs><path d="M495.86901875 325.31685125L322.37838406 417.16159625a24.5268 24.5268 0 0 0-13.04792718 21.67772625v156.90545344a24.5268 24.5268 0 0 0 9.92358187 19.70952656l173.49063375 128.59365375a24.5268 24.5268 0 0 0 29.20643625 0l173.50439812-128.59365375a24.5268 24.5268 0 0 0 9.92358188-19.70952656v-156.90545344a24.5268 24.5268 0 0 0-13.04792719-21.67772625l-173.50439812-91.844745a24.5268 24.5268 0 0 0-22.95774469 0z m22.90269-25.68294469l196.81999781 103.5713625a24.5268 24.5268 0 0 1 13.075455 21.69149063V607.31999375a24.5268 24.5268 0 0 1-9.97863656 19.75081781l-196.81999781 145.01367094a24.5268 24.5268 0 0 1-29.09632688 0l-196.81999781-145.01367094a24.5268 24.5268 0 0 1-9.92358187-19.75081781V424.89675969a24.5268 24.5268 0 0 1 13.10298187-21.705255l196.81999781-103.5713625a24.5268 24.5268 0 0 1 22.82010844 0z m-11.42381812-6.01470937" p-id="1159" fill="#ffffff"></path><path d="M507.34789062 777.63122844a25.17369094 25.17369094 0 0 1-14.96107218-4.94114531l-196.81999781-145.01367094a25.31132719 25.31132719 0 0 1-10.22638219-20.35641844V424.89675969a25.15992656 25.15992656 0 0 1 13.47460031-22.31085469l196.81999781-103.5713625a25.20121781 25.20121781 0 0 1 23.49452719 0l196.81999781 103.5713625a25.14616313 25.14616313 0 0 1 13.47459938 22.31085469V607.31999375a25.31132719 25.31132719 0 0 1-10.39154531 20.35641844l-196.81999782 145.01367094a25.17369094 25.17369094 0 0 1-14.86472718 4.94114531z m0-480.14444907a23.82485437 23.82485437 0 0 0-11.10725437 2.75272688l-196.81999781 103.5713625a23.78356313 23.78356313 0 0 0-12.73136344 21.09965437V607.31999375a23.93496375 23.93496375 0 0 0 9.63454594 19.18650938l196.81999781 145.01367093a23.72850844 23.72850844 0 0 0 28.28427187 0L718.27561625 626.58908469a23.93496375 23.93496375 0 0 0 9.634545-19.18650938v-182.50581562a23.78356313 23.78356313 0 0 0-12.73136344-21.09965438l-196.81999781-103.5713625a23.82485437 23.82485437 0 0 0-11.01090938-2.73896343z m0 452.12168532a25.15992656 25.15992656 0 0 1-15.01612687-4.9962l-173.49063469-128.57988938a25.32509063 25.32509063 0 0 1-10.19885437-20.2600725v-156.9054525a25.15992656 25.15992656 0 0 1 13.41954562-22.28332687l173.49063469-91.844745a25.18745437 25.18745437 0 0 1 23.59087219 0l173.50439812 91.81721719a25.15992656 25.15992656 0 0 1 13.41954563 22.28332687v156.90545344a25.31132719 25.31132719 0 0 1-10.19885438 20.2600725L522.36401844 744.61226469a25.17369094 25.17369094 0 0 1-15.01612782 4.9962z m-11.47887187-424.29161344l0.31656281 0.60559969-173.54568843 91.844745a23.78356313 23.78356313 0 0 0-12.69007313 21.07212656v156.90545344a23.93496375 23.93496375 0 0 0 9.63454594 19.15898156l173.49063469 128.59365281a23.714745 23.714745 0 0 0 28.39438125 0l173.50439812-128.59365281a23.93496375 23.93496375 0 0 0 9.634545-19.15898156v-156.90545344a23.78356313 23.78356313 0 0 0-12.69007219-21.07212656l-173.42181656-91.844745a23.82485437 23.82485437 0 0 0-22.31085469 0z" p-id="1160" fill="#ffffff"></path><path d="M507.34789062 792.09681031a39.59798156 39.59798156 0 0 1-23.53581749-7.77645469l-196.81999782-145.01367093a39.81819937 39.81819937 0 0 1-16.10345437-31.98669094V424.89675969a39.57045375 39.57045375 0 0 1 21.19599937-35.09727281l196.81999781-103.5713625a39.65303625 39.65303625 0 0 1 36.95536313 0L722.61116094 389.85454156a39.57045375 39.57045375 0 0 1 21.19600031 35.09727282V607.31999375a39.81819937 39.81819937 0 0 1-16.13098219 31.93163625L530.88370906 784.32035563a39.59798156 39.59798156 0 0 1-23.53581844 7.77645468z m-4.40436281-453.40170469l-173.42181656 91.844745a9.37303594 9.37303594 0 0 0-4.9962 8.25818157v156.9054525a9.42809062 9.42809062 0 0 0 3.79876312 7.5424725l173.49063469 128.59365375a9.33174562 9.33174562 0 0 0 11.1760725 0l173.50439813-128.59365375a9.42809062 9.42809062 0 0 0 3.79876406-7.5424725v-156.9054525a9.37303594 9.37303594 0 0 0-4.9962-8.25818157l-173.55945281-91.844745a9.37303594 9.37303594 0 0 0-8.78119969 0z" p-id="1161" fill="#ffffff"></path><path d="M507.34789062 792.78499156A40.10723625 40.10723625 0 0 1 483.41292781 784.87090062l-196.81999781-145.01367093A40.50638156 40.50638156 0 0 1 270.20043875 607.31999375V424.89675969a40.25863594 40.25863594 0 0 1 21.55385438-35.71663594l196.81999781-103.5713625a40.3412175 40.3412175 0 0 1 37.58849062 0l196.81999781 103.5713625a40.25863594 40.25863594 0 0 1 21.56761782 35.71663594V607.31999375a40.50638156 40.50638156 0 0 1-16.42001813 32.48218125L531.28285437 784.87090062a40.10723625 40.10723625 0 0 1-23.93496375 7.91409094z m0-510.43821281a38.95109062 38.95109062 0 0 0-18.16799906 4.48694531l-196.81999875 103.57136344a38.8822725 38.8822725 0 0 0-20.82438093 34.49167219V607.31999375a39.13001812 39.13001812 0 0 0 15.85570875 31.38109031l196.81999781 145.01367188a38.79969094 38.79969094 0 0 0 46.2458175 0l196.83376219-144.95861719a39.13001812 39.13001812 0 0 0 15.82818093-31.436145V424.89675969a38.8822725 38.8822725 0 0 0-20.82438093-34.49167219l-196.81999782-103.57136344a38.95109062 38.95109062 0 0 0-18.12670968-4.48694531z m0 452.10792281a10.06121812 10.06121812 0 0 1-6.000945-1.9957275l-173.49063468-128.59365281a10.11627281 10.11627281 0 0 1-4.12909032-8.09301844v-156.9054525a10.06121812 10.06121812 0 0 1 5.3678175-8.9050725l173.49063469-91.844745a10.06121812 10.06121812 0 0 1 9.42809063 0l173.50439812 91.844745a10.06121812 10.06121812 0 0 1 5.36781844 8.9050725v156.9054525a10.11627281 10.11627281 0 0 1-4.12909125 8.09301844l-173.40805219 128.59365281a10.04745469 10.04745469 0 0 1-6.00094593 1.9957275z m0-396.15874125a8.69861812 8.69861812 0 0 0-4.12909031 1.01850938L329.78322031 431.14545031a8.68485469 8.68485469 0 0 0-4.62458156 7.69387219v156.90545344a8.73990937 8.73990937 0 0 0 3.52349063 6.99192656l173.49063468 128.59365375a8.65732687 8.65732687 0 0 0 10.3640175 0l173.46310782-128.56612594a8.73990937 8.73990937 0 0 0 3.52349062-6.9919275v-156.9054525a8.68485469 8.68485469 0 0 0-4.62458156-7.69387312l-173.47687125-91.87227188a8.69861812 8.69861812 0 0 0-4.07403657-1.01850843z" p-id="1162" fill="#ffffff"></path><path d="M517.73943594 540.08463125l2.40863625 187.40567062c0.08258156 5.40910875-4.78974563 9.88229062-10.88703563 9.97863563-6.09729094 0.096345-11.12101781-4.21167281-11.20360031-9.634545l-2.40863625-187.44696187a9.51067219 9.51067219 0 0 0-4.78974563-7.91409094L305.86202 420.51992281a9.11152687 9.11152687 0 0 1-2.68390875-13.83245437l0.06881812-0.08258156a11.9881275 11.9881275 0 0 1 15.13999969-2.40863625l183.74454375 109.44843468a12.20834531 12.20834531 0 0 0 12.66254532-0.23398125l169.10003437-109.25574469a11.9881275 11.9881275 0 0 1 15.22258219 1.88561813 9.12529125 9.12529125 0 0 1-2.28476438 13.95632719l-174.50914312 111.96718125a9.52443656 9.52443656 0 0 0-4.58329125 8.12054531z m5.9871825-5.21641875" p-id="1163" fill="#ffffff"></path><path d="M509.04081781 738.15711969a12.38727281 12.38727281 0 0 1-8.13430875-2.9041275 9.89605406 9.89605406 0 0 1-3.59230875-7.39107282l-2.40863625-187.44696093a8.85001781 8.85001781 0 0 0-4.45941843-7.33601813L305.50416594 421.09799563a10.41907219 10.41907219 0 0 1-4.9962-7.06074563 9.634545 9.634545 0 0 1 2.13336375-7.80398156 12.67630875 12.67630875 0 0 1 16.07592656-2.61509063l183.74454375 109.44843563a11.54769094 11.54769094 0 0 0 11.93307281-0.22021875L683.49490719 403.61817781a12.63501844 12.63501844 0 0 1 16.10345437 2.00949094 9.634545 9.634545 0 0 1 2.38110938 7.76269031 10.41907219 10.41907219 0 0 1-4.8172725 7.22590969l-174.46785281 111.92588906a8.85001781 8.85001781 0 0 0-4.28049094 7.52870906l2.42239969 187.40567063a9.88229062 9.88229062 0 0 1-3.34456313 7.50118219 12.38727281 12.38727281 0 0 1-8.2581825 3.1794z m-196.81999781-334.965615a10.85950875 10.85950875 0 0 0-8.42334469 3.82629094 8.32699969 8.32699969 0 0 0-1.91314593 6.78547312 8.93260031 8.93260031 0 0 0 4.34930906 6.11105438l184.92821625 111.98094375a10.21261781 10.21261781 0 0 1 5.12007281 8.49216375l2.40863625 187.44696187a8.53345406 8.53345406 0 0 0 3.11058187 6.3588 11.43758156 11.43758156 0 0 0 14.75461782-0.23398219 8.53345406 8.53345406 0 0 0 2.9041275-6.46890843l-2.40863625-187.40567063a10.21261781 10.21261781 0 0 1 4.9136175-8.69861812l174.46785281-111.98094469a8.93260031 8.93260031 0 0 0 4.19790937-6.26245406 8.25818156 8.25818156 0 0 0-2.05078218-6.66160032 11.23112719 11.23112719 0 0 0-14.32794469-1.76174531l-169.11379875 109.25574469a12.95158125 12.95158125 0 0 1-13.39201781 0.24774469l-183.74454375-109.44843469a11.34123656 11.34123656 0 0 0-5.79449063-1.58281875z" p-id="1164" fill="#ffffff"></path><path d="M508.9995275 752.60893813a26.81156344 26.81156344 0 0 1-17.50734562-6.40009126 24.48550875 24.48550875 0 0 1-8.62980001-18.11294531L480.49503688 544.00726719 298.01674812 433.471505a24.85712719 24.85712719 0 0 1-11.75414531-16.97056406 24.18270844 24.18270844 0 0 1 5.18889094-19.40672625 27.04554562 27.04554562 0 0 1 34.65683531-5.91836438l182.07914344 108.45745407 167.46216187-108.195945a27.00425438 27.00425438 0 0 1 34.83576376 4.63834593 24.168945 24.168945 0 0 1 5.80825406 19.26909094 24.87089062 24.87089062 0 0 1-11.32747219 17.355945l-172.04545312 110.42565281 2.36734593 184.12992563a24.45798188 24.45798188 0 0 1-8.02420031 18.33316312 26.83909031 26.83909031 0 0 1-17.74132688 6.97816406h-0.50925468z m-3.991455-24.91218188z" p-id="1165" fill="#ffffff"></path><path d="M508.9995275 753.29711938a27.5272725 27.5272725 0 0 1-17.8927275-6.56525438 25.17369094 25.17369094 0 0 1-8.86378125-18.63596344l-2.42240062-183.75830718-182.161725-110.28801657a25.54530844 25.54530844 0 0 1-12.07070907-17.4385275 24.87089062 24.87089062 0 0 1 5.34029063-19.95727218 27.77501812 27.77501812 0 0 1 35.53770937-6.06976407l181.67999813 108.23723532 167.10430687-107.96196188a27.69243563 27.69243563 0 0 1 35.78545407 4.76221781 24.87089062 24.87089062 0 0 1 5.97341812 19.84716282 25.55907281 25.55907281 0 0 1-11.6302725 17.8927275l-171.77017969 110.17790812 2.367345 183.74454375a25.10487281 25.10487281 0 0 1-8.25818156 18.85618125 27.5272725 27.5272725 0 0 1-18.19552687 7.15709062z m-196.81999781-365.24561438a26.15090906 26.15090906 0 0 0-20.24630907 9.46938187 23.49452719 23.49452719 0 0 0-5.03749125 18.85618125 24.168945 24.168945 0 0 0 11.42381813 16.51636407l182.80861687 110.67339843v0.38538188l2.367345 184.1574525a23.79732656 23.79732656 0 0 0 8.43710907 17.58992719 26.15090906 26.15090906 0 0 0 17.05314562 6.22116375h0.49549031a26.15090906 26.15090906 0 0 0 17.28712688-6.79923657 23.74227281 23.74227281 0 0 0 7.83150937-17.82390843l-2.367345-184.5153075 0.31656282-0.20645438 172.04545312-110.42565375a24.18270844 24.18270844 0 0 0 11.01090938-16.87421718 23.48076375 23.48076375 0 0 0-5.64309094-18.74607282 26.31607219 26.31607219 0 0 0-33.94112719-4.51447312l-167.82001687 108.41616281-182.45076094-108.73272656a26.37112687 26.37112687 0 0 0-13.51589063-3.64736344z m192.14036156 339.70030594h1.37636344z m1.05979969 0z" p-id="1166" fill="#ffffff"></path><path d="M509.632655 986.4944075C253.39503875 986.4944075 44.61444125 777.71381 44.61444125 521.48995812S253.39503875 56.48550875 509.632655 56.48550875C617.82859906 56.48550875 716.70656188 93.79872687 801.62819656 159.17599906a1.01850938 1.01850938 0 0 0 1.62410906-1.01850937l-18.38821781-87.33027188a0.99098156 0.99098156 0 0 1 0-0.20645437c0-4.74845438 0-14.03890875 4.63834594-18.77359969l0.16516312-0.23398219Q796.7283425 37.50545469 803.816615 37.50545469h4.67963625c9.48314531 0 23.72850844 9.48314531 23.72850938 18.98005406l33.19789031 170.66908875a1.03227281 1.03227281 0 0 1 0 0.19269094v4.65210937c0 14.23159969-9.49690875 23.714745-18.980055 23.714745l-170.66908875 33.19789032h-4.84479938c-9.48314531 0-23.72850844-9.49690875-23.72850937-18.98005407 0-4.74845438 0-14.23159969 4.74845437-18.98005406s9.48314531-9.48314531 14.23159969-9.48314531l121.38150844-23.39818125a1.03227281 1.03227281 0 0 0 0.50925468-1.77550969c-89.20212656-82.78827188-210.73503375-120.04643531-334.18108781-104.16319875C265.21800312 136.60363531 118.47011375 288.76063344 99.04962219 478.02439531 74.59164125 716.50692031 254.13827563 919.50679063 484.197455 933.5181725c238.11090656 14.50687219 438.30299531-176.82143437 438.24794063-415.30395937 0-24.08636344-0.15139969-44.82816281-3.41338219-65.19834469-0.82581844-5.16136313-2.39487281-12.04318125-3.4546725-17.23207313a52.56332625 52.56332625 0 0 1-1.26625407-11.01090843 12.38727281 12.38727281 0 0 1 1.37636344-4.3630725c1.23872719-2.42239969 5.87707312-11.01090938 20.93449031-12.73136344h4.74845438c14.21783625 0 22.59989063 10.29520031 28.4356725 28.28427187v0.16516407c4.66587281 12.11200031 9.44185406 49.02607219 9.46938187 85.33454437 0.26150906 256.26514313-213.51528844 465.00444938-469.75290375 465.00444938z m0 0" p-id="1167" fill="#ffffff"></path><path d="M509.632655 991.99986219C250.18811188 991.99986219 39.10898656 780.93450125 39.10898656 521.48995812S250.18811188 50.98005406 509.632655 50.98005406a463.07754 463.07754 0 0 1 156.58888875 27.15565406A506.06137594 506.06137594 0 0 1 795.39326937 147.61454375L779.4687425 71.91454531a6.5377275 6.5377275 0 0 1-0.13763625-1.37636437c0-5.12007281 0-15.6217275 5.68438125-22.02181782 5.71190906-11.13478125 11.86425469-16.51636312 18.8011275-16.51636312h4.67963625c11.36876344 0 28.72470844 10.65305437 29.22019969 23.8936725l33.10154531 170.25618a6.68912719 6.68912719 0 0 1 0.12387281 1.25249062v4.65210938c0 15.88323656-10.68058125 28.90363594-23.92120031 29.22019969l-170.1735975 33.10154531a6.48267281 6.48267281 0 0 1-1.25249156 0.12387281h-4.65210844c-11.54769094 0-29.23396313-11.01090938-29.23396313-24.48550969 0-5.36781844 0-16.51636312 6.35879907-22.87516312 5.29900031-5.29900031 10.77692719-10.77692719 17.53487343-11.07972656l112.13234344-21.56761875c-86.71090781-76.86990844-203.93579813-112.09105313-323.12888719-96.7583625A403.96272281 403.96272281 0 0 0 216.96269375 237.07817938a408.50472281 408.50472281 0 0 0-112.43514375 241.46923406c-11.50639969 112.13234438 22.02181781 220.87883438 94.50112594 306.21337875a407.22470437 407.22470437 0 0 0 126.06114469 99.80012625 404.82983156 404.82983156 0 0 0 462.30677625-66.49212656 410.58303188 410.58303188 0 0 0 129.54334406-299.88210657c0-25.50401812-0.24774562-45.04838156-3.34456313-64.331235-0.57807281-3.56478187-1.55529094-8.16183656-2.40863625-12.20834531-0.357855-1.67916375-0.70194563-3.28950938-1.00474593-4.77598219a50.19598125 50.19598125 0 0 1-1.26625407-10.03369031l-0.09634593-1.720455a14.83719937 14.83719937 0 0 1 2.02325437-7.18461844c4.542-8.89130906 13.268145-14.31418125 25.21498219-15.69054468H941.42544969c20.85190875 0 29.20643625 18.30563625 33.67961812 32.08303593l0.096345 0.30280032c5.34029063 14.47934531 9.634545 53.14139906 9.63454594 86.87607093 0.12387281 123.73509-48.77832656 240.86363344-137.6363625 329.90059688A478.97454 478.97454 0 0 1 695.02883469 954.16362688a471.37701281 471.37701281 0 0 1-185.39617969 37.83623531z m0-930.00889875C256.25787594 61.99096344 50.11989594 268.11517906 50.11989594 521.48995812s206.13798 459.49899469 459.51275906 459.49899563a460.42115906 460.42115906 0 0 0 181.10192531-36.90030937 468.08750437 468.08750437 0 0 0 148.64727094-100.47454407c86.83478063-86.93112656 134.59459875-201.32070656 134.47072594-322.0690875 0-35.78545406-4.73469094-71.99758125-9.11152781-83.35258125l-0.23398125-0.71570906c-6.9919275-21.47127281-16.00710937-24.22399969-23.08161844-24.22399969h-4.41812719c-5.61556312 0.68818219-12.8965275 2.94541781-16.3512 9.73089094a13.54341844 13.54341844 0 0 0-0.81205406 1.94067281l0.08258156 1.37636344a40.3412175 40.3412175 0 0 0 1.05979969 8.46463687c0.30280031 1.458945 0.6331275 3.04176375 0.9909825 4.69339969 0.89463656 4.12909125 1.89938156 8.91883594 2.51874562 12.75889031 3.22069125 20.09490844 3.46843594 40.05218156 3.48219938 66.06545438a422.22706781 422.22706781 0 0 1-273.89636063 395.59443187 416.7353775 416.7353775 0 0 1-334.00216031-19.40672718 418.18055906 418.18055906 0 0 1-129.44699812-102.484035c-74.44750875-87.70189031-108.85659844-199.38003375-97.06116282-314.526615a419.5569225 419.5569225 0 0 1 115.4769075-248.00696063 412.70263219 412.70263219 0 0 1 244.16690719-122.63399906c125.49683531-16.14474562 248.929125 22.33838156 338.58545063 105.58085344a6.5377275 6.5377275 0 0 1-3.20692688 11.21736375l-121.89076313 23.39818125h-0.52301812c-2.46369094 0-7.01945437 4.55576344-10.33649063 7.87280062s-3.13810875 11.50639969-3.13810875 15.13999969c0 5.50545469 10.7218725 13.47460031 18.22305469 13.47459937h4.21167188l170.82048937-33.22541718h0.53678157c6.51019969 0 13.47460031-7.32225469 13.47460031-18.20929125v-4.21167282L826.78812406 57.00852688v-0.53678157c0-5.50545469-10.7218725-13.47460031-18.22305468-13.47460031h-4.74845438c-1.70669063 0-5.14759969 2.9041275-9.24916312 11.01090938l-0.77076375 1.1836725-0.37161844 0.41290968c-2.94541781 3.04176375-3.08305406 10.7218725-3.08305406 14.46558094l18.29187187 86.87607188a6.52396312 6.52396312 0 0 1-10.3640175 6.51019968c-42.57092719-32.77121812-88.25243531-58.02749062-135.76450781-75.03934406a452.080395 452.080395 0 0 0-152.87270719-26.42618156z m454.83312188 375.11414156z m10.80445406-2.11960031z m-0.26150907-0.86710875v0.15139968zM674.75499781 283.55797906z" p-id="1168" fill="#ffffff"></path></svg>